<svg xmlns="http://www.w3.org/2000/svg" xmlns:xlink="http://www.w3.org/1999/xlink" width="1080" zoomAndPan="magnify" viewBox="0 0 810 809.999993" height="1080" preserveAspectRatio="xMidYMid meet" version="1.0"><path fill="#ffffff" d="M 430.3125 303.75 L 430.3125 126.5625 C 430.3125 119.390625 432.738281 113.378906 437.589844 108.527344 C 442.441406 103.675781 448.453125 101.25 455.625 101.25 L 683.4375 101.25 C 690.609375 101.25 696.621094 103.675781 701.472656 108.527344 C 706.324219 113.378906 708.75 119.390625 708.75 126.5625 L 708.75 303.75 C 708.75 310.921875 706.324219 316.933594 701.472656 321.785156 C 696.621094 326.636719 690.609375 329.0625 683.4375 329.0625 L 455.625 329.0625 C 448.453125 329.0625 442.441406 326.636719 437.589844 321.785156 C 432.738281 316.933594 430.3125 310.921875 430.3125 303.75 Z M 101.25 405 L 101.25 126.5625 C 101.25 119.390625 103.675781 113.378906 108.527344 108.527344 C 113.378906 103.675781 119.390625 101.25 126.5625 101.25 L 354.375 101.25 C 361.546875 101.25 367.558594 103.675781 372.410156 108.527344 C 377.261719 113.378906 379.6875 119.390625 379.6875 126.5625 L 379.6875 405 C 379.6875 412.171875 377.261719 418.183594 372.410156 423.035156 C 367.558594 427.886719 361.546875 430.3125 354.375 430.3125 L 126.5625 430.3125 C 119.390625 430.3125 113.378906 427.886719 108.527344 423.035156 C 103.675781 418.183594 101.25 412.171875 101.25 405 Z M 430.3125 683.4375 L 430.3125 405 C 430.3125 397.828125 432.738281 391.816406 437.589844 386.964844 C 442.441406 382.113281 448.453125 379.6875 455.625 379.6875 L 683.4375 379.6875 C 690.609375 379.6875 696.621094 382.113281 701.472656 386.964844 C 706.324219 391.816406 708.75 397.828125 708.75 405 L 708.75 683.4375 C 708.75 690.609375 706.324219 696.621094 701.472656 701.472656 C 696.621094 706.324219 690.609375 708.75 683.4375 708.75 L 455.625 708.75 C 448.453125 708.75 442.441406 706.324219 437.589844 701.472656 C 432.738281 696.621094 430.3125 690.609375 430.3125 683.4375 Z M 101.25 683.4375 L 101.25 506.25 C 101.25 499.078125 103.675781 493.066406 108.527344 488.214844 C 113.378906 483.363281 119.390625 480.9375 126.5625 480.9375 L 354.375 480.9375 C 361.546875 480.9375 367.558594 483.363281 372.410156 488.214844 C 377.261719 493.066406 379.6875 499.078125 379.6875 506.25 L 379.6875 683.4375 C 379.6875 690.609375 377.261719 696.621094 372.410156 701.472656 C 367.558594 706.324219 361.546875 708.75 354.375 708.75 L 126.5625 708.75 C 119.390625 708.75 113.378906 706.324219 108.527344 701.472656 C 103.675781 696.621094 101.25 690.609375 101.25 683.4375 Z M 101.25 683.4375 " fill-opacity="1" fill-rule="nonzero"/></svg>