<svg xmlns="http://www.w3.org/2000/svg" xmlns:xlink="http://www.w3.org/1999/xlink" width="200" zoomAndPan="magnify" viewBox="0 0 150 149.999998" height="200" preserveAspectRatio="xMidYMid meet" version="1.0"><path fill="#ffffff" d="M 4.6875 112.5 C 3.359375 112.5 2.246094 112.050781 1.347656 111.152344 C 0.449219 110.253906 0 109.140625 0 107.8125 L 0 104.21875 C 0 100.109375 2.148438 96.816406 6.445312 94.339844 C 10.742188 91.863281 16.40625 90.625 23.4375 90.625 C 24.6875 90.625 25.910156 90.664062 27.109375 90.742188 C 28.308594 90.820312 29.480469 90.9375 30.625 91.09375 C 29.792969 92.863281 29.167969 94.683594 28.75 96.546875 C 28.332031 98.410156 28.125 100.394531 28.125 102.5 L 28.125 112.5 Z M 42.1875 112.5 C 40.859375 112.5 39.746094 112.050781 38.847656 111.152344 C 37.949219 110.253906 37.5 109.140625 37.5 107.8125 L 37.5 102.5 C 37.5 95.730469 40.964844 90.234375 47.890625 86.015625 C 54.816406 81.796875 63.855469 79.6875 75 79.6875 C 86.25 79.6875 95.3125 81.796875 102.1875 86.015625 C 109.0625 90.234375 112.5 95.730469 112.5 102.5 L 112.5 107.8125 C 112.5 109.140625 112.050781 110.253906 111.152344 111.152344 C 110.253906 112.050781 109.140625 112.5 107.8125 112.5 Z M 121.875 112.5 L 121.875 102.5 C 121.875 100.394531 121.667969 98.410156 121.25 96.546875 C 120.832031 94.683594 120.207031 92.851562 119.375 91.050781 C 120.519531 90.871094 121.691406 90.753906 122.890625 90.703125 C 124.089844 90.652344 125.316406 90.625 126.574219 90.625 C 133.546875 90.625 139.191406 91.863281 143.515625 94.339844 C 147.839844 96.816406 150 100.109375 150 104.21875 L 150 107.8125 C 150 109.140625 149.550781 110.253906 148.652344 111.152344 C 147.753906 112.050781 146.640625 112.5 145.3125 112.5 Z M 23.421875 85.9375 C 20.410156 85.9375 17.839844 84.863281 15.703125 82.71875 C 13.566406 80.574219 12.5 77.996094 12.5 74.984375 C 12.5 71.972656 13.574219 69.402344 15.71875 67.265625 C 17.863281 65.128906 20.441406 64.0625 23.453125 64.0625 C 26.464844 64.0625 29.035156 65.136719 31.171875 67.28125 C 33.308594 69.425781 34.375 72.003906 34.375 75.015625 C 34.375 78.027344 33.300781 80.597656 31.15625 82.734375 C 29.011719 84.871094 26.433594 85.9375 23.421875 85.9375 Z M 126.546875 85.9375 C 123.535156 85.9375 120.964844 84.863281 118.828125 82.71875 C 116.691406 80.574219 115.625 77.996094 115.625 74.984375 C 115.625 71.972656 116.699219 69.402344 118.84375 67.265625 C 120.988281 65.128906 123.566406 64.0625 126.578125 64.0625 C 129.589844 64.0625 132.160156 65.136719 134.296875 67.28125 C 136.433594 69.425781 137.5 72.003906 137.5 75.015625 C 137.5 78.027344 136.425781 80.597656 134.28125 82.734375 C 132.136719 84.871094 129.558594 85.9375 126.546875 85.9375 Z M 75 75 C 69.792969 75 65.363281 73.175781 61.71875 69.53125 C 58.074219 65.886719 56.25 61.457031 56.25 56.25 C 56.25 51.042969 58.074219 46.613281 61.71875 42.96875 C 65.363281 39.324219 69.792969 37.5 75 37.5 C 80.207031 37.5 84.636719 39.324219 88.28125 42.96875 C 91.925781 46.613281 93.75 51.042969 93.75 56.25 C 93.75 61.457031 91.925781 65.886719 88.28125 69.53125 C 84.636719 73.175781 80.207031 75 75 75 Z M 75 75 " fill-opacity="1" fill-rule="nonzero"/></svg>