<svg xmlns="http://www.w3.org/2000/svg" xmlns:xlink="http://www.w3.org/1999/xlink" width="200" zoomAndPan="magnify" viewBox="0 0 150 149.999998" height="200" preserveAspectRatio="xMidYMid meet" version="1.0"><path fill="#ffffff" d="M 75.628906 111.40625 C 77.292969 111.40625 78.699219 110.832031 79.84375 109.683594 C 80.988281 108.535156 81.5625 107.128906 81.5625 105.464844 C 81.5625 103.800781 80.988281 102.394531 79.839844 101.25 C 78.691406 100.105469 77.285156 99.53125 75.621094 99.53125 C 73.957031 99.53125 72.550781 100.105469 71.40625 101.253906 C 70.261719 102.402344 69.6875 103.808594 69.6875 105.472656 C 69.6875 107.136719 70.261719 108.542969 71.410156 109.6875 C 72.558594 110.832031 73.964844 111.40625 75.628906 111.40625 Z M 75.042969 137.5 C 66.421875 137.5 58.324219 135.859375 50.746094 132.578125 C 43.164062 129.296875 36.535156 124.816406 30.859375 119.140625 C 25.183594 113.464844 20.703125 106.832031 17.421875 99.242188 C 14.140625 91.65625 12.5 83.550781 12.5 74.921875 C 12.5 66.292969 14.140625 58.1875 17.421875 50.601562 C 20.703125 43.011719 25.183594 36.40625 30.859375 30.78125 C 36.535156 25.15625 43.167969 20.703125 50.757812 17.421875 C 58.34375 14.140625 66.449219 12.5 75.078125 12.5 C 83.707031 12.5 91.8125 14.140625 99.398438 17.421875 C 106.988281 20.703125 113.59375 25.15625 119.21875 30.78125 C 124.84375 36.40625 129.296875 43.019531 132.578125 50.625 C 135.859375 58.230469 137.5 66.339844 137.5 74.957031 C 137.5 83.578125 135.859375 91.675781 132.578125 99.253906 C 129.296875 106.835938 124.84375 113.453125 119.21875 119.113281 C 113.59375 124.769531 106.980469 129.25 99.375 132.550781 C 91.769531 135.851562 83.660156 137.5 75.042969 137.5 Z M 75.433594 46.875 C 78.582031 46.875 81.355469 47.839844 83.75 49.765625 C 86.144531 51.691406 87.34375 54.152344 87.34375 57.140625 C 87.34375 59.878906 86.527344 62.261719 84.898438 64.285156 C 83.269531 66.308594 81.425781 68.214844 79.375 70 C 76.980469 71.980469 74.894531 74.1875 73.125 76.621094 C 71.355469 79.058594 70.46875 81.800781 70.46875 84.84375 C 70.46875 85.988281 70.90625 86.902344 71.78125 87.578125 C 72.65625 88.253906 73.675781 88.59375 74.84375 88.59375 C 76.09375 88.59375 77.128906 88.175781 77.949219 87.34375 C 78.769531 86.511719 79.296875 85.46875 79.53125 84.21875 C 79.84375 82.03125 80.675781 80.050781 82.03125 78.28125 C 83.386719 76.511719 84.960938 74.90625 86.753906 73.472656 C 89.335938 71.367188 91.457031 68.90625 93.125 66.09375 C 94.792969 63.28125 95.625 60.226562 95.625 56.933594 C 95.625 51.6875 93.671875 47.316406 89.765625 43.828125 C 85.859375 40.339844 81.226562 38.59375 75.867188 38.59375 C 72.164062 38.59375 68.59375 39.375 65.15625 40.9375 C 61.71875 42.5 58.90625 44.792969 56.71875 47.8125 C 55.988281 48.855469 55.652344 49.972656 55.703125 51.171875 C 55.753906 52.371094 56.25 53.332031 57.183594 54.0625 C 58.371094 54.894531 59.601562 55.15625 60.878906 54.84375 C 62.152344 54.53125 63.214844 53.800781 64.0625 52.65625 C 65.390625 50.792969 67.050781 49.363281 69.042969 48.367188 C 71.035156 47.371094 73.164062 46.875 75.433594 46.875 Z M 75.433594 46.875 " fill-opacity="1" fill-rule="nonzero"/></svg>