<svg xmlns="http://www.w3.org/2000/svg" xmlns:xlink="http://www.w3.org/1999/xlink" width="200" zoomAndPan="magnify" viewBox="0 0 150 149.999998" height="200" preserveAspectRatio="xMidYMid meet" version="1.0"><path fill="#ffffff" d="M 74.53125 131.25 C 59.738281 131.25 47.058594 126.277344 36.484375 116.328125 C 25.910156 106.378906 20.050781 94.113281 18.90625 79.53125 C 18.800781 78.28125 19.191406 77.1875 20.078125 76.25 C 20.964844 75.3125 22.082031 74.84375 23.4375 74.84375 C 24.6875 74.84375 25.753906 75.285156 26.640625 76.171875 C 27.527344 77.058594 28.074219 78.175781 28.28125 79.53125 C 29.425781 91.511719 34.375 101.5625 43.125 109.6875 C 51.875 117.8125 62.34375 121.875 74.53125 121.875 C 87.761719 121.875 98.957031 117.238281 108.125 107.96875 C 117.292969 98.699219 121.875 87.449219 121.875 74.21875 C 121.875 61.300781 117.238281 50.390625 107.96875 41.484375 C 98.699219 32.578125 87.550781 28.125 74.53125 28.125 C 67.449219 28.125 60.808594 29.738281 54.609375 32.96875 C 48.410156 36.199219 43.019531 40.46875 38.4375 45.78125 L 50.15625 45.78125 C 51.511719 45.78125 52.628906 46.222656 53.515625 47.109375 C 54.402344 47.996094 54.84375 49.113281 54.84375 50.46875 C 54.84375 51.824219 54.402344 52.941406 53.515625 53.828125 C 52.628906 54.714844 51.511719 55.15625 50.15625 55.15625 L 26.875 55.15625 C 25.519531 55.15625 24.402344 54.714844 23.515625 53.828125 C 22.628906 52.941406 22.1875 51.824219 22.1875 50.46875 L 22.1875 27.34375 C 22.1875 25.988281 22.628906 24.871094 23.515625 23.984375 C 24.402344 23.097656 25.519531 22.65625 26.875 22.65625 C 28.230469 22.65625 29.347656 23.097656 30.234375 23.984375 C 31.121094 24.871094 31.5625 25.988281 31.5625 27.34375 L 31.5625 39.21875 C 36.980469 32.863281 43.410156 27.863281 50.859375 24.21875 C 58.308594 20.574219 66.199219 18.75 74.53125 18.75 C 82.34375 18.75 89.6875 20.207031 96.5625 23.125 C 103.4375 26.042969 109.453125 30.027344 114.609375 35.078125 C 119.765625 40.128906 123.828125 46.042969 126.796875 52.8125 C 129.765625 59.582031 131.25 66.875 131.25 74.6875 C 131.25 82.5 129.765625 89.84375 126.796875 96.71875 C 123.828125 103.59375 119.765625 109.582031 114.609375 114.6875 C 109.453125 119.792969 103.4375 123.828125 96.5625 126.796875 C 89.6875 129.765625 82.34375 131.25 74.53125 131.25 Z M 79.84375 72.8125 L 97.8125 90.46875 C 98.75 91.40625 99.21875 92.527344 99.21875 93.828125 C 99.21875 95.128906 98.75 96.25 97.8125 97.1875 C 96.875 98.125 95.78125 98.59375 94.53125 98.59375 C 93.28125 98.59375 92.1875 98.125 91.25 97.1875 L 71.875 78.125 C 71.355469 77.605469 70.988281 77.058594 70.78125 76.484375 C 70.574219 75.910156 70.46875 75.3125 70.46875 74.6875 L 70.46875 47.96875 C 70.46875 46.613281 70.910156 45.496094 71.796875 44.609375 C 72.683594 43.722656 73.800781 43.28125 75.15625 43.28125 C 76.511719 43.28125 77.628906 43.722656 78.515625 44.609375 C 79.402344 45.496094 79.84375 46.613281 79.84375 47.96875 Z M 79.84375 72.8125 " fill-opacity="1" fill-rule="nonzero"/></svg>