<svg xmlns="http://www.w3.org/2000/svg" xmlns:xlink="http://www.w3.org/1999/xlink" width="200" zoomAndPan="magnify" viewBox="0 0 150 149.999998" height="200" preserveAspectRatio="xMidYMid meet" version="1.0"><path fill="#ffffff" d="M 34.375 131.25 C 31.796875 131.25 29.589844 130.332031 27.753906 128.496094 C 25.917969 126.660156 25 124.453125 25 121.875 L 25 60.9375 C 25 59.453125 25.332031 58.046875 25.996094 56.71875 C 26.660156 55.390625 27.578125 54.296875 28.75 53.4375 L 69.375 22.96875 C 70.238281 22.34375 71.140625 21.875 72.085938 21.5625 C 73.027344 21.25 74.007812 21.09375 75.03125 21.09375 C 76.050781 21.09375 77.027344 21.25 77.957031 21.5625 C 78.882812 21.875 79.773438 22.34375 80.625 22.96875 L 121.25 53.4375 C 122.421875 54.296875 123.339844 55.390625 124.003906 56.71875 C 124.667969 58.046875 125 59.453125 125 60.9375 L 125 121.875 C 125 124.453125 124.082031 126.660156 122.246094 128.496094 C 120.410156 130.332031 118.203125 131.25 115.625 131.25 L 87.5 131.25 L 87.5 87.5 L 62.5 87.5 L 62.5 131.25 Z M 34.375 131.25 " fill-opacity="1" fill-rule="nonzero"/></svg>