<svg xmlns="http://www.w3.org/2000/svg" xmlns:xlink="http://www.w3.org/1999/xlink" width="200" zoomAndPan="magnify" viewBox="0 0 150 149.999998" height="200" preserveAspectRatio="xMidYMid meet" version="1.0"><path fill="#ffffff" d="M 21.875 112.5 C 19.375 112.5 17.1875 111.5625 15.3125 109.6875 C 13.4375 107.8125 12.5 105.625 12.5 103.125 L 12.5 21.875 C 12.5 19.375 13.4375 17.1875 15.3125 15.3125 C 17.1875 13.4375 19.375 12.5 21.875 12.5 L 128.125 12.5 C 130.625 12.5 132.8125 13.4375 134.6875 15.3125 C 136.5625 17.1875 137.5 19.375 137.5 21.875 L 137.5 126.25 C 137.5 128.332031 136.535156 129.765625 134.609375 130.546875 C 132.683594 131.328125 130.988281 130.988281 129.53125 129.53125 L 112.5 112.5 Z M 21.875 112.5 " fill-opacity="1" fill-rule="nonzero"/></svg>