<svg xmlns="http://www.w3.org/2000/svg" viewBox="0 0 100 125" x="0px" y="0px"><title>Bell line</title><g data-name="Layer 2"><path d="M72.6,19.164c6.1,2.113,8.342,9.144,7.352,14.686a2,2,0,1,0,3.937.7c1.282-7.173-1.781-16.33-9.981-19.169a2,2,0,0,0-1.309,3.78Z"/><path d="M77.265,6.544a2,2,0,0,0-1.309,3.78c10.841,3.753,14.838,16.148,13.094,25.9a2,2,0,1,0,3.937.7C95.024,25.544,90.205,11.023,77.265,6.544Z"/><path d="M16.111,34.553a2,2,0,1,0,3.937-.7c-.99-5.542,1.25-12.573,7.352-14.686a2,2,0,0,0-1.309-3.78C17.893,18.224,14.83,27.38,16.111,34.553Z"/><path d="M24.043,10.324a2,2,0,0,0-1.309-3.78c-12.94,4.479-17.759,19-15.723,30.388a2,2,0,1,0,3.937-.7C9.206,26.472,13.2,14.077,24.043,10.324Z"/><path d="M84.235,73.294c-.2-.217-.413-.445-.635-.69a16.938,16.938,0,0,0-2.438-2.132,14.135,14.135,0,0,1-4.638-5.386c-1.867-3.553-1.043-11.109-.441-16.627.175-1.606.341-3.123.426-4.4A27.587,27.587,0,0,0,58.722,16.448V14.911a10.676,10.676,0,0,0-2.457-6.9,8.222,8.222,0,0,0-6.264-3c-4.809,0-8.722,4.438-8.722,9.893v1.538A27.588,27.588,0,0,0,23.491,44.06c.1,1.5.342,3.326.6,5.255.69,5.24,1.636,12.417-.119,15.756a13.347,13.347,0,0,1-4.846,5.283A15.284,15.284,0,0,0,16.4,72.605c-.221.244-.433.472-.634.689-1.8,1.937-3.214,3.467-3.214,7.365a2,2,0,0,0,2,2h19.6a16.359,16.359,0,0,0,31.707,0H85.469a2,2,0,0,0,1.977-2.3C87.374,76.681,85.983,75.181,84.235,73.294ZM50,9.018a4.273,4.273,0,0,1,3.219,1.59,6.663,6.663,0,0,1,1.5,4.3v.4a24.608,24.608,0,0,0-9.443,0v-.4C45.278,11.661,47.4,9.018,50,9.018Zm0,81.965a12.445,12.445,0,0,1-11.69-8.323H61.689A12.445,12.445,0,0,1,50,90.982ZM16.795,78.659a7.384,7.384,0,0,1,1.9-2.645c.211-.228.433-.467.664-.723a11.9,11.9,0,0,1,2.052-1.659,17.181,17.181,0,0,0,6.091-6.693c2.35-4.471,1.35-12.054.547-18.146-.246-1.864-.477-3.625-.571-5A23.539,23.539,0,0,1,43.872,19.77a20.586,20.586,0,0,1,12.267,0A23.536,23.536,0,0,1,72.518,43.791c-.08,1.193-.241,2.67-.412,4.234-.694,6.366-1.558,14.289.881,18.929a18.163,18.163,0,0,0,5.751,6.7,13.408,13.408,0,0,1,1.9,1.636c.232.256.454.5.665.723a7.384,7.384,0,0,1,1.9,2.645Z"/></g><text x="0" y="115" fill="#000000" font-size="5px" font-weight="bold" font-family="'Helvetica Neue', Helvetica, Arial-Unicode, Arial, Sans-serif">Created by Fahrul Oktaviana</text><text x="0" y="120" fill="#000000" font-size="5px" font-weight="bold" font-family="'Helvetica Neue', Helvetica, Arial-Unicode, Arial, Sans-serif">from the Noun Project</text></svg>