<svg xmlns="http://www.w3.org/2000/svg" xmlns:xlink="http://www.w3.org/1999/xlink" width="200" zoomAndPan="magnify" viewBox="0 0 150 149.999998" height="200" preserveAspectRatio="xMidYMid meet" version="1.0"><path fill="#ffffff" d="M 75 74.84375 C 68.125 74.84375 62.5 72.65625 58.125 68.28125 C 53.75 63.90625 51.5625 58.28125 51.5625 51.40625 C 51.5625 44.53125 53.75 38.90625 58.125 34.53125 C 62.5 30.15625 68.125 27.96875 75 27.96875 C 81.875 27.96875 87.5 30.15625 91.875 34.53125 C 96.25 38.90625 98.4375 44.53125 98.4375 51.40625 C 98.4375 58.28125 96.25 63.90625 91.875 68.28125 C 87.5 72.65625 81.875 74.84375 75 74.84375 Z M 34.375 125 C 31.769531 125 29.558594 124.089844 27.734375 122.265625 C 25.910156 120.441406 25 118.230469 25 115.625 L 25 110.3125 C 25 106.355469 25.988281 102.96875 27.96875 100.15625 C 29.949219 97.34375 32.5 95.207031 35.625 93.75 C 42.605469 90.625 49.296875 88.28125 55.703125 86.71875 C 62.109375 85.15625 68.542969 84.375 75 84.375 C 81.457031 84.375 87.863281 85.183594 94.21875 86.796875 C 100.574219 88.410156 107.238281 90.730469 114.21875 93.75 C 117.449219 95.207031 120.050781 97.34375 122.03125 100.15625 C 124.011719 102.96875 125 106.355469 125 110.3125 L 125 115.625 C 125 118.230469 124.089844 120.441406 122.265625 122.265625 C 120.441406 124.089844 118.230469 125 115.625 125 Z M 34.375 125 " fill-opacity="1" fill-rule="nonzero"/></svg>