<svg xmlns="http://www.w3.org/2000/svg" xmlns:xlink="http://www.w3.org/1999/xlink" width="200" zoomAndPan="magnify" viewBox="0 0 150 149.999998" height="200" preserveAspectRatio="xMidYMid meet" version="1.0"><path fill="#ffffff" d="M 85.3125 137.5 L 64.6875 137.5 C 63.542969 137.5 62.527344 137.136719 61.640625 136.40625 C 60.753906 135.675781 60.207031 134.738281 60 133.59375 L 57.5 117.8125 C 55.519531 117.082031 53.4375 116.09375 51.25 114.84375 C 49.0625 113.59375 47.136719 112.292969 45.46875 110.9375 L 30.9375 117.65625 C 29.792969 118.175781 28.644531 118.253906 27.5 117.890625 C 26.355469 117.527344 25.46875 116.769531 24.84375 115.625 L 14.53125 97.34375 C 13.90625 96.300781 13.75 95.207031 14.0625 94.0625 C 14.375 92.917969 15 91.980469 15.9375 91.25 L 29.375 81.40625 C 29.167969 80.46875 29.035156 79.402344 28.984375 78.203125 C 28.933594 77.003906 28.90625 75.9375 28.90625 75 C 28.90625 74.0625 28.933594 72.996094 28.984375 71.796875 C 29.035156 70.597656 29.167969 69.53125 29.375 68.59375 L 15.9375 58.75 C 15 58.019531 14.375 57.082031 14.0625 55.9375 C 13.75 54.792969 13.90625 53.699219 14.53125 52.65625 L 24.84375 34.375 C 25.46875 33.230469 26.355469 32.472656 27.5 32.109375 C 28.644531 31.746094 29.792969 31.824219 30.9375 32.34375 L 45.46875 39.0625 C 47.136719 37.707031 49.0625 36.40625 51.25 35.15625 C 53.4375 33.90625 55.519531 32.96875 57.5 32.34375 L 60 16.40625 C 60.207031 15.261719 60.753906 14.324219 61.640625 13.59375 C 62.527344 12.863281 63.542969 12.5 64.6875 12.5 L 85.3125 12.5 C 86.457031 12.5 87.472656 12.863281 88.359375 13.59375 C 89.246094 14.324219 89.792969 15.261719 90 16.40625 L 92.5 32.1875 C 94.480469 32.917969 96.589844 33.878906 98.828125 35.078125 C 101.066406 36.277344 102.96875 37.605469 104.53125 39.0625 L 119.0625 32.34375 C 120.207031 31.824219 121.355469 31.746094 122.5 32.109375 C 123.644531 32.472656 124.53125 33.230469 125.15625 34.375 L 135.46875 52.5 C 136.09375 53.542969 136.277344 54.660156 136.015625 55.859375 C 135.753906 57.058594 135.105469 58.019531 134.0625 58.75 L 120.625 68.28125 C 120.832031 69.324219 120.964844 70.441406 121.015625 71.640625 C 121.066406 72.839844 121.09375 73.957031 121.09375 75 C 121.09375 76.042969 121.066406 77.136719 121.015625 78.28125 C 120.964844 79.425781 120.832031 80.519531 120.625 81.5625 L 134.0625 91.25 C 135 91.980469 135.625 92.917969 135.9375 94.0625 C 136.25 95.207031 136.09375 96.300781 135.46875 97.34375 L 125.15625 115.625 C 124.53125 116.769531 123.644531 117.527344 122.5 117.890625 C 121.355469 118.253906 120.207031 118.175781 119.0625 117.65625 L 104.53125 110.9375 C 102.863281 112.292969 100.964844 113.621094 98.828125 114.921875 C 96.691406 116.222656 94.582031 117.1875 92.5 117.8125 L 90 133.59375 C 89.792969 134.738281 89.246094 135.675781 88.359375 136.40625 C 87.472656 137.136719 86.457031 137.5 85.3125 137.5 Z M 75 95.3125 C 80.625 95.3125 85.417969 93.332031 89.375 89.375 C 93.332031 85.417969 95.3125 80.625 95.3125 75 C 95.3125 69.375 93.332031 64.582031 89.375 60.625 C 85.417969 56.667969 80.625 54.6875 75 54.6875 C 69.375 54.6875 64.582031 56.667969 60.625 60.625 C 56.667969 64.582031 54.6875 69.375 54.6875 75 C 54.6875 80.625 56.667969 85.417969 60.625 89.375 C 64.582031 93.332031 69.375 95.3125 75 95.3125 Z M 75 95.3125 " fill-opacity="1" fill-rule="nonzero"/></svg>