<svg xmlns="http://www.w3.org/2000/svg" xmlns:xlink="http://www.w3.org/1999/xlink" width="200" zoomAndPan="magnify" viewBox="0 0 150 149.999998" height="200" preserveAspectRatio="xMidYMid meet" version="1.0"><path fill="#ffffff" d="M 34.375 137.5 C 31.875 137.5 29.6875 136.5625 27.8125 134.6875 C 25.9375 132.8125 25 130.625 25 128.125 L 25 21.875 C 25 19.375 25.9375 17.1875 27.8125 15.3125 C 29.6875 13.4375 31.875 12.5 34.375 12.5 L 86.875 12.5 C 88.125 12.5 89.347656 12.761719 90.546875 13.28125 C 91.746094 13.800781 92.761719 14.480469 93.59375 15.3125 L 122.1875 43.90625 C 123.019531 44.738281 123.699219 45.753906 124.21875 46.953125 C 124.738281 48.152344 125 49.375 125 50.625 L 125 128.125 C 125 130.625 124.0625 132.8125 122.1875 134.6875 C 120.3125 136.5625 118.125 137.5 115.625 137.5 Z M 86.09375 46.25 C 86.09375 47.605469 86.535156 48.722656 87.421875 49.609375 C 88.308594 50.496094 89.425781 50.9375 90.78125 50.9375 L 115.625 50.9375 L 86.09375 21.875 Z M 67.8125 97.96875 L 54.6875 84.84375 C 54.269531 84.425781 53.800781 84.113281 53.28125 83.90625 C 52.761719 83.699219 52.238281 83.59375 51.71875 83.59375 C 51.199219 83.59375 50.675781 83.722656 50.15625 83.984375 C 49.636719 84.246094 49.167969 84.582031 48.75 85 C 47.917969 85.832031 47.5 86.847656 47.5 88.046875 C 47.5 89.246094 47.917969 90.261719 48.75 91.09375 L 64.53125 106.875 C 65.050781 107.394531 65.574219 107.761719 66.09375 107.96875 C 66.613281 108.175781 67.1875 108.28125 67.8125 108.28125 C 68.4375 108.28125 69.011719 108.175781 69.53125 107.96875 C 70.050781 107.761719 70.574219 107.394531 71.09375 106.875 L 100.625 77.34375 C 101.457031 76.511719 101.875 75.496094 101.875 74.296875 C 101.875 73.097656 101.457031 72.082031 100.625 71.25 C 99.792969 70.417969 98.777344 70 97.578125 70 C 96.378906 70 95.363281 70.417969 94.53125 71.25 Z M 67.8125 97.96875 " fill-opacity="1" fill-rule="nonzero"/></svg>