<svg xmlns="http://www.w3.org/2000/svg" xmlns:xlink="http://www.w3.org/1999/xlink" width="200" zoomAndPan="magnify" viewBox="0 0 150 149.999998" height="200" preserveAspectRatio="xMidYMid meet" version="1.0"><path fill="#ffffff" d="M 68.59375 80.9375 L 56.25 68.59375 C 55.3125 67.65625 54.167969 67.1875 52.8125 67.1875 C 51.457031 67.1875 50.3125 67.65625 49.375 68.59375 C 48.4375 69.53125 47.96875 70.675781 47.96875 72.03125 C 47.96875 73.386719 48.4375 74.53125 49.375 75.46875 L 64.84375 91.09375 C 65.78125 92.03125 66.875 92.5 68.125 92.5 C 69.375 92.5 70.46875 92.03125 71.40625 91.09375 L 100.46875 62.03125 C 101.40625 61.09375 101.875 59.972656 101.875 58.671875 C 101.875 57.371094 101.40625 56.300781 100.46875 55.46875 C 99.636719 54.636719 98.542969 54.246094 97.1875 54.296875 C 95.832031 54.347656 94.738281 54.792969 93.90625 55.625 Z M 75 136.875 C 74.480469 136.875 73.984375 136.824219 73.515625 136.71875 C 73.046875 136.613281 72.550781 136.457031 72.03125 136.25 C 57.550781 131.355469 46.09375 122.578125 37.65625 109.921875 C 29.21875 97.265625 25 83.386719 25 68.28125 L 25 37.65625 C 25 35.675781 25.574219 33.878906 26.71875 32.265625 C 27.863281 30.652344 29.324219 29.480469 31.09375 28.75 L 71.71875 13.59375 C 72.863281 13.175781 73.957031 12.96875 75 12.96875 C 76.042969 12.96875 77.136719 13.175781 78.28125 13.59375 L 118.90625 28.75 C 120.675781 29.480469 122.136719 30.652344 123.28125 32.265625 C 124.425781 33.878906 125 35.675781 125 37.65625 L 125 68.28125 C 125 83.386719 120.78125 97.265625 112.34375 109.921875 C 103.90625 122.578125 92.449219 131.355469 77.96875 136.25 C 77.449219 136.457031 76.953125 136.613281 76.484375 136.71875 C 76.015625 136.824219 75.519531 136.875 75 136.875 Z M 75 136.875 " fill-opacity="1" fill-rule="nonzero"/></svg>